<svg width="566" height="164" viewBox="0 0 566 164" fill="none" xmlns="http://www.w3.org/2000/svg">
<g filter="url(#filter0_d_2532_3356)">
<path d="M174.904 64.7045C171.704 64.7045 169.048 64.2565 166.936 63.3605C164.824 62.4325 163.224 61.2325 162.136 59.7605C161.048 58.2885 160.472 56.7205 160.408 55.0565C160.408 54.8005 160.504 54.5765 160.696 54.3845C160.92 54.1605 161.176 54.0485 161.464 54.0485H167.512C167.96 54.0485 168.296 54.1285 168.52 54.2885C168.776 54.4485 169 54.6565 169.192 54.9125C169.448 55.3925 169.8 55.8565 170.248 56.3045C170.728 56.7525 171.352 57.1205 172.12 57.4085C172.888 57.6645 173.816 57.7925 174.904 57.7925C176.76 57.7925 178.152 57.5045 179.08 56.9285C180.04 56.3525 180.52 55.5685 180.52 54.5765C180.52 53.8405 180.264 53.2485 179.752 52.8005C179.24 52.3525 178.408 51.9525 177.256 51.6005C176.136 51.2165 174.632 50.8325 172.744 50.4485C170.312 49.9365 168.232 49.2805 166.504 48.4805C164.808 47.6485 163.512 46.5765 162.616 45.2645C161.72 43.9205 161.272 42.2565 161.272 40.2725C161.272 38.3205 161.816 36.5765 162.904 35.0405C164.024 33.5045 165.576 32.3045 167.56 31.4405C169.544 30.5765 171.896 30.1445 174.616 30.1445C176.824 30.1445 178.76 30.4325 180.424 31.0085C182.12 31.5845 183.544 32.3525 184.696 33.3125C185.848 34.2725 186.712 35.2965 187.288 36.3845C187.896 37.4405 188.216 38.4805 188.248 39.5045C188.248 39.7605 188.152 40.0005 187.96 40.2245C187.8 40.4165 187.56 40.5125 187.24 40.5125H180.904C180.552 40.5125 180.248 40.4485 179.992 40.3205C179.736 40.1925 179.512 39.9845 179.32 39.6965C179.128 38.9925 178.616 38.3845 177.784 37.8725C176.984 37.3285 175.928 37.0565 174.616 37.0565C173.208 37.0565 172.104 37.3125 171.304 37.8245C170.536 38.3045 170.152 39.0565 170.152 40.0805C170.152 40.7205 170.36 41.2805 170.776 41.7605C171.224 42.2405 171.944 42.6565 172.936 43.0085C173.96 43.3605 175.352 43.7285 177.112 44.1125C180.024 44.6565 182.376 45.3445 184.168 46.1765C185.96 46.9765 187.272 48.0325 188.104 49.3445C188.968 50.6245 189.4 52.2405 189.4 54.1925C189.4 56.3685 188.776 58.2405 187.528 59.8085C186.28 61.3765 184.568 62.5925 182.392 63.4565C180.248 64.2885 177.752 64.7045 174.904 64.7045ZM202.468 64.2245C202.116 64.2245 201.828 64.1125 201.604 63.8885C201.38 63.6325 201.268 63.3445 201.268 63.0245V38.1605H192.724C192.372 38.1605 192.084 38.0485 191.86 37.8245C191.636 37.5685 191.524 37.2805 191.524 36.9605V31.8245C191.524 31.4725 191.636 31.1845 191.86 30.9605C192.084 30.7365 192.372 30.6245 192.724 30.6245H218.548C218.9 30.6245 219.188 30.7365 219.412 30.9605C219.636 31.1845 219.748 31.4725 219.748 31.8245V36.9605C219.748 37.2805 219.636 37.5685 219.412 37.8245C219.188 38.0485 218.9 38.1605 218.548 38.1605H210.004V63.0245C210.004 63.3445 209.892 63.6325 209.668 63.8885C209.444 64.1125 209.156 64.2245 208.804 64.2245H202.468ZM225.31 64.2245C224.958 64.2245 224.67 64.1125 224.446 63.8885C224.222 63.6325 224.11 63.3445 224.11 63.0245V31.8245C224.11 31.4725 224.222 31.1845 224.446 30.9605C224.67 30.7365 224.958 30.6245 225.31 30.6245H247.726C248.078 30.6245 248.366 30.7365 248.59 30.9605C248.814 31.1845 248.926 31.4725 248.926 31.8245V36.3365C248.926 36.6885 248.814 36.9765 248.59 37.2005C248.366 37.4245 248.078 37.5365 247.726 37.5365H232.414V44.0165H246.67C247.022 44.0165 247.31 44.1445 247.534 44.4005C247.758 44.6245 247.87 44.9125 247.87 45.2645V49.4405C247.87 49.7605 247.758 50.0485 247.534 50.3045C247.31 50.5285 247.022 50.6405 246.67 50.6405H232.414V57.3125H248.11C248.462 57.3125 248.75 57.4245 248.974 57.6485C249.198 57.8725 249.31 58.1605 249.31 58.5125V63.0245C249.31 63.3445 249.198 63.6325 248.974 63.8885C248.75 64.1125 248.462 64.2245 248.11 64.2245H225.31ZM255.966 64.2245C255.614 64.2245 255.326 64.1125 255.102 63.8885C254.878 63.6325 254.766 63.3445 254.766 63.0245V31.8245C254.766 31.4725 254.878 31.1845 255.102 30.9605C255.326 30.7365 255.614 30.6245 255.966 30.6245H269.406C272.062 30.6245 274.366 31.0405 276.318 31.8725C278.302 32.6725 279.838 33.8885 280.926 35.5205C282.046 37.1525 282.606 39.2165 282.606 41.7125C282.606 44.1765 282.046 46.2085 280.926 47.8085C279.838 49.4085 278.302 50.5925 276.318 51.3605C274.366 52.1285 272.062 52.5125 269.406 52.5125H263.694V63.0245C263.694 63.3445 263.566 63.6325 263.31 63.8885C263.086 64.1125 262.798 64.2245 262.446 64.2245H255.966ZM263.55 45.8885H269.166C270.542 45.8885 271.63 45.5365 272.43 44.8325C273.262 44.1285 273.678 43.0565 273.678 41.6165C273.678 40.4005 273.326 39.3765 272.622 38.5445C271.918 37.7125 270.766 37.2965 269.166 37.2965H263.55V45.8885ZM297.591 64.2245C297.239 64.2245 296.951 64.1125 296.727 63.8885C296.503 63.6325 296.391 63.3445 296.391 63.0245V31.8245C296.391 31.4725 296.503 31.1845 296.727 30.9605C296.951 30.7365 297.239 30.6245 297.591 30.6245H304.023C304.375 30.6245 304.663 30.7365 304.887 30.9605C305.143 31.1845 305.271 31.4725 305.271 31.8245V63.0245C305.271 63.3445 305.143 63.6325 304.887 63.8885C304.663 64.1125 304.375 64.2245 304.023 64.2245H297.591ZM313.154 64.2245C312.802 64.2245 312.514 64.1125 312.29 63.8885C312.066 63.6325 311.954 63.3445 311.954 63.0245V31.8245C311.954 31.4725 312.066 31.1845 312.29 30.9605C312.514 30.7365 312.802 30.6245 313.154 30.6245H318.242C318.786 30.6245 319.17 30.7525 319.394 31.0085C319.65 31.2325 319.81 31.4085 319.874 31.5365L331.586 49.9685V31.8245C331.586 31.4725 331.698 31.1845 331.922 30.9605C332.146 30.7365 332.434 30.6245 332.786 30.6245H338.546C338.898 30.6245 339.186 30.7365 339.41 30.9605C339.634 31.1845 339.746 31.4725 339.746 31.8245V62.9765C339.746 63.3285 339.634 63.6325 339.41 63.8885C339.186 64.1125 338.898 64.2245 338.546 64.2245H333.41C332.898 64.2245 332.514 64.0965 332.258 63.8405C332.034 63.5845 331.89 63.4085 331.826 63.3125L320.114 45.5525V63.0245C320.114 63.3445 320.002 63.6325 319.778 63.8885C319.554 64.1125 319.266 64.2245 318.914 64.2245H313.154ZM355.046 64.2245C354.694 64.2245 354.406 64.1125 354.182 63.8885C353.958 63.6325 353.846 63.3445 353.846 63.0245V38.1605H345.302C344.95 38.1605 344.662 38.0485 344.438 37.8245C344.214 37.5685 344.102 37.2805 344.102 36.9605V31.8245C344.102 31.4725 344.214 31.1845 344.438 30.9605C344.662 30.7365 344.95 30.6245 345.302 30.6245H371.126C371.478 30.6245 371.766 30.7365 371.99 30.9605C372.214 31.1845 372.326 31.4725 372.326 31.8245V36.9605C372.326 37.2805 372.214 37.5685 371.99 37.8245C371.766 38.0485 371.478 38.1605 371.126 38.1605H362.582V63.0245C362.582 63.3445 362.47 63.6325 362.246 63.8885C362.022 64.1125 361.734 64.2245 361.382 64.2245H355.046ZM389.901 64.7045C386.957 64.7045 384.397 64.2245 382.221 63.2645C380.045 62.3045 378.349 60.8645 377.133 58.9445C375.917 56.9925 375.245 54.5605 375.117 51.6485C375.085 50.2725 375.069 48.8965 375.069 47.5205C375.069 46.1125 375.085 44.7205 375.117 43.3445C375.245 40.4645 375.917 38.0485 377.133 36.0965C378.381 34.1125 380.093 32.6245 382.269 31.6325C384.477 30.6405 387.021 30.1445 389.901 30.1445C392.813 30.1445 395.357 30.6405 397.533 31.6325C399.709 32.6245 401.421 34.1125 402.669 36.0965C403.917 38.0485 404.589 40.4645 404.685 43.3445C404.749 44.7205 404.781 46.1125 404.781 47.5205C404.781 48.8965 404.749 50.2725 404.685 51.6485C404.589 54.5605 403.917 56.9925 402.669 58.9445C401.453 60.8645 399.757 62.3045 397.581 63.2645C395.405 64.2245 392.845 64.7045 389.901 64.7045ZM389.901 57.7925C391.597 57.7925 392.973 57.2805 394.029 56.2565C395.117 55.2325 395.693 53.6005 395.757 51.3605C395.821 49.9525 395.853 48.6245 395.853 47.3765C395.853 46.1285 395.821 44.8325 395.757 43.4885C395.693 41.9845 395.405 40.7685 394.893 39.8405C394.413 38.8805 393.741 38.1765 392.877 37.7285C392.013 37.2805 391.021 37.0565 389.901 37.0565C388.813 37.0565 387.837 37.2805 386.973 37.7285C386.109 38.1765 385.421 38.8805 384.909 39.8405C384.397 40.7685 384.109 41.9845 384.045 43.4885C384.013 44.8325 383.997 46.1285 383.997 47.3765C383.997 48.6245 384.013 49.9525 384.045 51.3605C384.141 53.6005 384.717 55.2325 385.773 56.2565C386.861 57.2805 388.237 57.7925 389.901 57.7925Z" fill="#FEFEFE"/>
</g>
<mask id="mask0_2532_3356" style="mask-type:luminance" maskUnits="userSpaceOnUse" x="0" y="83" width="566" height="81">
<path d="M565.477 83.2246H0.521484V163.6H565.477V83.2246Z" fill="white"/>
</mask>
<g mask="url(#mask0_2532_3356)">
<path d="M562.799 136.198C562.064 135.462 561.223 134.861 560.303 134.415C561.813 132.76 562.682 130.63 562.682 128.291V118.232C562.682 115.912 561.818 113.691 560.12 111.996C560.821 111.593 561.473 111.094 562.052 110.511C563.612 108.954 564.731 106.775 564.731 104.168V93.1776C564.731 90.7388 563.773 88.4081 561.902 86.6847C560.225 85.0816 558.031 84.156 555.619 84.156H509.981C507.458 84.156 505.334 85.2062 503.789 86.6857C501.915 88.409 500.959 90.7393 500.959 93.1776V96.0393C499.539 94.2347 497.86 92.594 495.978 91.1031C492.909 88.6098 489.278 86.7255 485.23 85.35C480.984 83.8858 476.294 83.2246 471.264 83.2246C465.16 83.2246 459.503 84.2067 454.436 86.3566L454.419 86.3638L454.402 86.3709C449.445 88.5062 445.29 91.606 442.208 95.7713L442.182 95.8059L442.157 95.8409C441.687 96.4935 441.254 97.161 440.857 97.8426C439.362 95.4387 437.433 93.27 435.054 91.3765C428.73 86.292 420.475 84.156 411.093 84.156H384.549C382.025 84.156 379.903 85.2061 378.357 86.6857C378.205 86.8249 378.06 86.9681 377.921 87.115C377.781 86.9678 377.635 86.8242 377.483 86.6846C375.807 85.0815 373.614 84.156 371.2 84.156H325.562C323.573 84.156 321.833 84.8083 320.429 85.8091C319.012 84.7528 317.284 84.156 315.413 84.156H300.977C298.61 84.156 295.875 84.8474 293.702 87.0205C292.571 88.1519 291.428 89.6816 290.837 91.6536L290.822 91.7032L286.168 108.15L281.514 91.7032L281.499 91.6536C280.908 89.6816 279.765 88.1519 278.634 87.0205C276.46 84.8474 273.725 84.156 271.359 84.156H256.922C254.43 84.156 252.302 85.2046 250.765 86.741C249.074 88.4322 248.274 90.6136 248.274 92.805C248.274 93.6894 248.416 94.4659 248.564 95.0578L248.607 95.2295L260.253 133.067C260.067 133.056 259.879 133.05 259.691 133.05H239.058V93.0113C239.058 90.5554 238.09 88.2856 236.266 86.5739C234.552 85.011 232.429 84.1552 230.083 84.1552H214.553C212.281 84.1552 210.158 85.011 208.445 86.6111C206.621 88.3228 205.652 90.5926 205.652 93.0485V95.5788C202.449 91.8578 198.427 88.9181 193.548 86.8344C188.074 84.5273 181.743 83.3366 174.704 83.3366C167.665 83.3366 161.334 84.4901 155.859 86.8344C151.018 88.9181 146.996 91.8206 143.867 95.5044V93.0485C143.867 90.667 142.936 88.4344 141.26 86.7599C139.621 85.1227 137.387 84.1924 135.003 84.1924H122.564C118.803 84.1924 116.531 85.8296 115.265 87.2437C114.52 88.0623 114.036 88.6577 113.776 88.9926L113.552 89.2902L103.943 105.961L94.372 89.3647L94.112 88.9926C93.851 88.6577 93.367 88.0623 92.621 87.2437C91.393 85.8669 89.084 84.1924 85.322 84.1924H72.883C70.537 84.1924 68.414 85.011 66.701 86.6111C64.913 88.2855 63.908 90.5925 63.908 93.0485V94.1648C62.902 93.0857 61.785 92.0438 60.556 91.0763C57.614 88.732 54.001 86.7971 49.83 85.3831C45.734 83.9692 41.004 83.2622 35.827 83.2622C29.533 83.2622 23.872 84.304 18.994 86.3879C13.8543 88.5833 9.72038 91.7462 6.77818 95.8021C3.68708 100.044 2.12289 105.068 2.12289 110.351C2.12289 115.635 3.42639 120.212 5.99609 124.008C7.33679 125.98 9.01279 127.729 10.9493 129.254H8.93819C6.70369 129.254 4.58088 130.147 2.97948 131.71C1.37808 133.348 0.521484 135.469 0.521484 137.924C0.707684 142.501 2.23459 146.855 5.17679 150.874C8.00719 154.781 12.2156 157.906 17.6157 160.214C22.718 162.372 29.049 163.488 36.46 163.488C42.978 163.488 48.899 162.483 54.076 160.474C57.837 159.023 61.152 157.051 63.945 154.595C64.169 156.678 65.137 158.614 66.701 160.102C68.415 161.665 70.574 162.521 72.884 162.521H86.924C89.27 162.521 91.505 161.628 93.18 159.953C94.856 158.279 95.787 156.046 95.787 153.664V145.292C97.054 146.111 98.767 146.818 101.076 146.818H106.774C109.12 146.818 110.87 146.111 112.137 145.292V153.702C112.137 156.083 113.068 158.316 114.744 159.99C116.382 161.628 118.617 162.558 121 162.558H135.041C137.424 162.558 139.659 161.628 141.335 159.953C142.974 158.279 143.905 156.046 143.905 153.664V151.73C147.107 155.451 151.167 158.316 156.046 160.288C161.446 162.446 167.703 163.562 174.704 163.562L174.741 163.6C181.743 163.6 187.999 162.483 193.4 160.325C198.316 158.353 202.45 155.451 205.652 151.655V153.702C205.652 156.157 206.621 158.427 208.446 160.139C210.158 161.739 212.244 162.558 214.516 162.558H259.654C261.963 162.558 264.122 161.702 265.836 160.102C266.755 159.258 267.457 158.263 267.927 157.17C268.475 158.138 269.146 158.976 269.858 159.689L269.97 159.799L270.086 159.905C272.293 161.911 274.97 162.553 277.32 162.553H295.016C297.284 162.553 300.043 161.948 302.259 159.811C303.532 158.629 304.752 157.021 305.353 154.928L316.541 118.399V153.531C316.541 156.02 317.524 158.273 319.219 159.968L319.374 160.123L319.539 160.268C321.157 161.683 323.236 162.553 325.562 162.553H371.945C374.166 162.553 376.316 161.795 378.06 160.268L378.226 160.124L378.293 160.056L378.361 160.123L378.526 160.268C380.143 161.683 382.223 162.553 384.549 162.553H399.73C401.951 162.553 404.258 161.783 406.073 159.968C407.768 158.273 408.752 156.02 408.752 153.531V149.146L412.143 156.133C412.822 157.721 413.875 158.942 414.715 159.782L414.838 159.904L414.967 160.021C417.219 162.047 419.943 162.553 422.083 162.553H437.824C440.015 162.553 442.196 161.752 443.888 160.061L444.067 159.882L444.232 159.689C445.082 158.698 445.704 157.547 446.053 156.297C448.131 157.835 450.461 159.139 452.985 160.236L453.037 160.259L453.09 160.281C458.482 162.515 464.84 163.484 471.915 163.484C478.265 163.484 484.145 162.553 489.443 160.539L489.466 160.53L489.489 160.521C493.941 158.79 497.826 156.372 500.958 153.18V153.531C500.958 156.02 501.941 158.273 503.636 159.968L503.792 160.123L503.957 160.268C505.575 161.683 507.653 162.553 509.981 162.553H556.366C558.582 162.553 560.732 161.795 562.481 160.268L562.643 160.124L562.799 159.968C564.492 158.273 565.478 156.02 565.478 153.531V142.634C565.478 140.146 564.492 137.893 562.799 136.198ZM317.335 93.1776C317.32 93.2659 317.301 93.3591 317.276 93.457L299.021 153.066C298.835 153.748 298.4 154.401 297.717 155.022C297.096 155.643 296.196 155.953 295.016 155.953H277.32C276.14 155.953 275.209 155.643 274.525 155.022C273.905 154.401 273.501 153.748 273.315 153.066L254.966 93.457C254.904 93.2087 254.873 92.9913 254.873 92.805C254.873 92.2462 255.06 91.7805 255.432 91.4079C255.867 90.9733 256.364 90.7559 256.922 90.7559H271.359C272.476 90.7559 273.346 91.0664 273.967 91.6873C274.588 92.3082 274.991 92.9292 275.178 93.5501L286.168 132.389L297.159 93.5501C297.345 92.9292 297.748 92.3082 298.369 91.6873C298.99 91.0664 299.859 90.7559 300.977 90.7559H315.413C315.933 90.7559 316.372 90.9438 316.731 91.3197C316.758 91.3481 316.785 91.3774 316.811 91.4079C317.183 91.7804 317.369 92.2461 317.369 92.8049C317.369 92.9178 317.358 93.042 317.335 93.1776ZM374.46 153.531C374.46 154.215 374.211 154.805 373.714 155.301C373.218 155.736 372.628 155.953 371.945 155.953H325.562C324.941 155.953 324.382 155.736 323.885 155.301C323.389 154.805 323.14 154.215 323.14 153.531V93.1776C323.14 93.0491 323.149 92.9249 323.167 92.8051C323.242 92.2932 323.478 91.8617 323.875 91.5105C323.878 91.5074 323.882 91.5043 323.885 91.5011C324.382 91.0044 324.941 90.756 325.562 90.756H371.2C371.883 90.756 372.473 91.0044 372.97 91.5011C373.466 91.9358 373.714 92.4946 373.714 93.1776V104.168C373.714 104.789 373.466 105.348 372.97 105.844C372.473 106.341 371.883 106.59 371.2 106.59H342.42V115.81H369.151C369.834 115.81 370.424 116.059 370.921 116.555C371.417 116.99 371.665 117.549 371.665 118.232V128.291C371.665 128.974 371.417 129.564 370.921 130.06C370.424 130.495 369.834 130.712 369.151 130.712H342.42V140.119H371.945C372.628 140.119 373.218 140.368 373.714 140.865C374.211 141.361 374.46 141.951 374.46 142.634V153.531ZM439.221 155.394C438.848 155.767 438.383 155.953 437.824 155.953H422.084C420.904 155.953 420.003 155.673 419.382 155.115C418.761 154.494 418.358 153.935 418.171 153.438L408.858 134.252H402.152V153.531C402.152 154.215 401.903 154.804 401.406 155.301C400.972 155.736 400.413 155.953 399.73 155.953H384.549C383.928 155.953 383.369 155.736 382.872 155.301C382.375 154.804 382.127 154.215 382.127 153.531V93.1776C382.127 92.4946 382.375 91.9358 382.872 91.5011C383.369 91.0044 383.928 90.756 384.549 90.756H411.093C419.538 90.756 426.151 92.6809 430.932 96.5307C434.516 99.38 436.774 103.063 437.706 107.579C437.893 108.488 438.028 109.431 438.107 110.408C438.167 111.135 438.196 111.88 438.196 112.644C438.196 113.691 438.139 114.701 438.023 115.673C437.66 118.733 436.724 121.418 435.216 123.727C433.309 126.647 430.83 128.967 427.779 130.686C427.651 130.758 427.522 130.829 427.392 130.899L439.5 152.88C439.687 153.252 439.78 153.594 439.78 153.904C439.78 154.463 439.594 154.959 439.221 155.394ZM500.959 140.112C500.375 142.67 499.263 144.97 497.622 147.012C495.076 150.178 491.568 152.631 487.097 154.37C482.688 156.046 477.628 156.884 471.915 156.884C465.396 156.884 459.963 155.984 455.616 154.183C451.332 152.32 448.103 149.93 445.93 147.012C443.819 144.032 442.701 140.896 442.577 137.605C442.577 137.046 442.763 136.58 443.135 136.208C443.508 135.835 443.974 135.649 444.533 135.649H459.342C460.211 135.649 460.894 135.804 461.391 136.115C461.888 136.363 462.416 136.736 462.974 137.232C463.533 137.915 464.185 138.567 464.93 139.188C465.675 139.747 466.638 140.212 467.818 140.585C468.997 140.896 470.363 141.051 471.915 141.051C474.772 141.051 476.976 140.678 478.528 139.933C480.081 139.126 480.857 138.039 480.857 136.673C480.857 135.618 480.422 134.749 479.553 134.066C478.746 133.383 477.349 132.762 475.362 132.203C473.375 131.644 470.674 131.054 467.259 130.433C462.477 129.626 458.348 128.446 454.871 126.894C451.394 125.279 448.724 123.137 446.861 120.467C445.858 118.945 445.134 117.23 444.689 115.321C444.491 114.467 444.348 113.575 444.261 112.644C444.194 111.922 444.16 111.177 444.16 110.408C444.16 109.373 444.234 108.369 444.381 107.395C444.807 104.572 445.851 102.006 447.513 99.6973C449.811 96.5927 452.977 94.1711 457.014 92.4325C461.111 90.6939 465.862 89.8247 471.264 89.8247C475.734 89.8247 479.677 90.4145 483.092 91.5943C486.569 92.7741 489.488 94.3263 491.847 96.2513C494.207 98.114 496.007 100.132 497.249 102.305C498.491 104.478 499.143 106.559 499.205 108.546C499.205 109.104 498.988 109.601 498.553 110.036C498.181 110.408 497.746 110.595 497.249 110.595H481.695C480.95 110.595 480.329 110.47 479.832 110.222C479.479 110.045 479.125 109.79 478.772 109.456C478.629 109.321 478.485 109.172 478.342 109.011C478.031 108.142 477.256 107.366 476.013 106.683C474.772 106 473.188 105.658 471.264 105.658C469.152 105.658 467.538 106.031 466.42 106.776C465.303 107.459 464.744 108.483 464.744 109.849C464.744 110.781 465.085 111.588 465.769 112.271C466.451 112.954 467.662 113.575 469.401 114.134C471.035 114.601 473.273 115.122 476.114 115.699C476.295 115.736 476.479 115.773 476.666 115.81C476.782 115.827 476.897 115.845 477.012 115.862C478.665 116.111 480.226 116.391 481.695 116.7C482.443 116.857 483.167 117.022 483.867 117.194C486.57 117.86 488.919 118.641 490.916 119.536C494.579 121.15 497.249 123.261 498.926 125.869C499.868 127.336 500.546 129.008 500.959 130.886C501.28 132.349 501.44 133.936 501.44 135.649C501.44 137.215 501.28 138.703 500.959 140.112ZM558.878 153.531C558.878 154.215 558.627 154.805 558.131 155.301C557.636 155.736 557.045 155.953 556.366 155.953H509.981C509.357 155.953 508.8 155.736 508.304 155.301C507.809 154.805 507.558 154.215 507.558 153.531V93.1776C507.558 92.4946 507.809 91.9358 508.304 91.5011C508.8 91.0044 509.357 90.756 509.981 90.756H555.619C556.299 90.756 556.889 91.0044 557.385 91.5011C557.886 91.9358 558.131 92.4946 558.131 93.1776V104.168C558.131 104.789 557.886 105.348 557.385 105.844C556.889 106.341 556.299 106.59 555.619 106.59H526.841V115.81H553.57C554.255 115.81 554.84 116.059 555.341 116.555C555.837 116.99 556.082 117.549 556.082 118.232V128.291C556.082 128.974 555.837 129.564 555.341 130.06C554.84 130.495 554.255 130.712 553.57 130.712H526.841V140.119H556.366C557.045 140.119 557.636 140.368 558.131 140.865C558.627 141.361 558.878 141.951 558.878 142.634V153.531Z" fill="#372B79"/>
<path d="M411 105.844H402.152V118.883H411C413.174 118.883 414.788 118.293 415.844 117.114C416.899 115.872 417.427 114.35 417.427 112.55C417.427 110.687 416.899 109.104 415.844 107.8C414.85 106.496 413.236 105.844 411 105.844Z" fill="#372B79"/>
<path d="M36.463 157.051C29.908 157.051 24.471 156.12 20.113 154.297C15.7932 152.436 12.5159 150.055 10.3931 147.078C8.233 144.101 7.1158 140.975 6.9668 137.664C6.9668 137.106 7.153 136.622 7.5254 136.25C7.8979 135.878 8.382 135.692 8.9406 135.692H23.838C24.694 135.692 25.402 135.84 25.886 136.101C26.37 136.399 26.929 136.771 27.487 137.255C28.046 137.962 28.716 138.594 29.461 139.19C30.206 139.785 31.174 140.269 32.366 140.604C33.558 140.938 34.936 141.125 36.5 141.125C39.368 141.125 41.602 140.715 43.129 139.934C44.693 139.152 45.475 138.073 45.475 136.696C45.475 135.617 45.066 134.761 44.209 134.054C43.353 133.385 41.937 132.752 39.964 132.194C37.952 131.636 35.234 131.04 31.807 130.408C27.003 129.589 22.832 128.398 19.368 126.798C15.8677 125.198 13.1863 123.04 11.3614 120.324C9.5365 117.607 8.6055 114.258 8.6055 110.277C8.6055 106.295 9.76 102.649 12.0318 99.523C14.3036 96.3973 17.5064 93.9786 21.566 92.2297C25.662 90.4808 30.429 89.625 35.83 89.625C40.336 89.625 44.321 90.2204 47.784 91.4111C51.248 92.6018 54.153 94.1275 56.536 96.0624C58.92 97.9602 60.707 100.007 61.974 102.202C63.203 104.398 63.873 106.481 63.948 108.454C63.948 109.012 63.761 109.495 63.352 109.905C62.942 110.314 62.495 110.5 62.011 110.5H46.369C45.624 110.5 44.991 110.388 44.507 110.128C44.023 109.868 43.502 109.458 43.017 108.9C42.719 108.044 41.937 107.263 40.671 106.556C39.405 105.886 37.841 105.514 35.904 105.514C33.781 105.514 32.143 105.886 31.025 106.593C29.908 107.3 29.349 108.342 29.349 109.719C29.349 110.649 29.685 111.468 30.392 112.137C31.063 112.844 32.292 113.44 34.042 113.961C35.792 114.482 38.213 115.077 41.342 115.71C47.263 116.565 52.067 117.831 55.717 119.468C59.367 121.105 62.048 123.226 63.724 125.831C65.4 128.473 66.257 131.747 66.257 135.654C66.257 140.082 64.991 143.878 62.421 147.078C59.851 150.241 56.35 152.697 51.881 154.409C47.412 156.12 42.31 156.976 36.574 156.976L36.463 157.051Z" fill="#7D50E6"/>
<path d="M72.8494 156.12C72.1784 156.12 71.5824 155.896 71.0624 155.412C70.5404 154.929 70.3164 154.371 70.3164 153.664V93.0477C70.3164 92.3779 70.5774 91.7825 71.0624 91.2988C71.5464 90.8151 72.1414 90.5918 72.8494 90.5918H85.2884C86.4054 90.5918 87.2614 90.8895 87.8204 91.522C88.3794 92.1546 88.7514 92.6012 88.9384 92.8244L103.909 118.835L118.881 92.8244C119.066 92.564 119.439 92.1546 119.998 91.522C120.556 90.8895 121.413 90.5918 122.53 90.5918H134.969C135.639 90.5918 136.235 90.8151 136.719 91.2988C137.203 91.7825 137.427 92.3407 137.427 93.0477V153.701C137.427 154.371 137.203 154.966 136.719 155.45C136.235 155.934 135.676 156.157 134.969 156.157H120.929C120.258 156.157 119.662 155.934 119.178 155.45C118.694 154.966 118.471 154.408 118.471 153.701V123.374L110.054 138.147C109.756 138.668 109.347 139.152 108.825 139.635C108.341 140.119 107.596 140.379 106.665 140.379H100.967C100.11 140.379 99.4024 140.119 98.9184 139.635C98.4344 139.152 98.0254 138.631 97.6904 138.147L89.2734 123.374V153.701C89.2734 154.371 89.0494 154.966 88.5654 155.45C88.0814 155.934 87.5224 156.157 86.8154 156.157H72.7744L72.8494 156.12Z" fill="#7D50E6"/>
<path d="M174.707 157.164C168.525 157.164 163.088 156.233 158.47 154.373C153.814 152.512 150.164 149.684 147.483 145.889C144.802 142.13 143.312 137.442 143.088 131.898C143.014 129.33 142.977 126.614 142.977 123.749C142.977 120.883 142.977 118.093 143.088 115.413C143.349 109.943 144.802 105.292 147.446 101.459C150.09 97.664 153.777 94.7616 158.432 92.7522C163.088 90.7429 168.525 89.7754 174.744 89.7754C180.963 89.7754 186.364 90.78 191.057 92.7522C195.712 94.7616 199.399 97.664 202.08 101.459C204.762 105.255 206.214 109.906 206.401 115.413C206.512 118.093 206.587 120.883 206.587 123.749C206.587 126.614 206.512 129.33 206.401 131.898C206.14 137.442 204.687 142.094 202.006 145.889C199.325 149.647 195.675 152.475 191.019 154.373C186.364 156.233 180.964 157.164 174.782 157.164H174.707Z" fill="#7D50E6"/>
<path d="M214.481 156.12C213.848 156.12 213.289 155.896 212.805 155.412C212.321 154.929 212.061 154.371 212.061 153.664V93.0477C212.061 92.3779 212.321 91.7825 212.805 91.2988C213.289 90.8151 213.885 90.5918 214.481 90.5918H230.011C230.682 90.5918 231.278 90.8151 231.799 91.2988C232.283 91.7825 232.544 92.3407 232.544 93.0477V139.45H259.619C260.289 139.45 260.885 139.673 261.407 140.156C261.891 140.64 262.151 141.198 262.151 141.905V153.701C262.151 154.371 261.891 154.966 261.407 155.45C260.922 155.934 260.326 156.157 259.619 156.157H214.481V156.12Z" fill="#7D50E6"/>
<path d="M168.115 104.285H162.641V120.732H168.115V104.285Z" fill="#F2EEFD"/>
<path d="M195.562 104.285H190.088V120.732H195.562V104.285Z" fill="#F2EEFD"/>
<path d="M201.037 126.203H195.562V131.673H201.037V126.203Z" fill="#F2EEFD"/>
<path d="M184.576 126.203H179.102V131.673H184.576V126.203Z" fill="#F2EEFD"/>
<path d="M162.601 131.711H157.127V137.181H162.601V131.711Z" fill="#F2EEFD"/>
<path d="M212.061 137.18H162.641V142.649H212.061V137.18Z" fill="#F2EEFD"/>
<path fill-rule="evenodd" clip-rule="evenodd" d="M277.32 155.953C276.14 155.953 275.209 155.643 274.525 155.022C273.905 154.401 273.501 153.748 273.314 153.066L254.966 93.457C254.904 93.2086 254.873 92.9913 254.873 92.8049C254.873 92.2461 255.06 91.7804 255.432 91.4079C255.867 90.9732 256.364 90.7559 256.922 90.7559H271.359C272.476 90.7559 273.346 91.0663 273.967 91.6872C274.588 92.3082 274.991 92.9291 275.177 93.55L286.168 132.389L297.158 93.55C297.344 92.9291 297.748 92.3082 298.369 91.6872C298.99 91.0663 299.859 90.7559 300.977 90.7559H315.413C315.933 90.7559 316.372 90.9438 316.731 91.3197C316.758 91.3479 316.784 91.3774 316.811 91.4078C317.183 91.7804 317.369 92.2461 317.369 92.8049C317.369 92.9177 317.358 93.0419 317.335 93.1774C317.32 93.2658 317.301 93.3589 317.276 93.4569L299.021 153.066C298.835 153.748 298.4 154.401 297.717 155.022C297.096 155.643 296.196 155.953 295.016 155.953H277.32Z" fill="#F2EEFD"/>
<path fill-rule="evenodd" clip-rule="evenodd" d="M323.141 153.531C323.141 154.215 323.389 154.804 323.886 155.301C324.383 155.736 324.941 155.953 325.562 155.953H371.945C372.628 155.953 373.219 155.736 373.715 155.301C374.212 154.804 374.46 154.215 374.46 153.531V142.634C374.46 141.951 374.212 141.361 373.715 140.864C373.219 140.368 372.628 140.119 371.945 140.119H342.42V130.712H369.151C369.834 130.712 370.424 130.495 370.921 130.06C371.418 129.564 371.666 128.974 371.666 128.291V118.232C371.666 117.549 371.418 116.99 370.921 116.555C370.424 116.059 369.834 115.81 369.151 115.81H342.42V106.589H371.2C371.883 106.589 372.473 106.341 372.97 105.844C373.466 105.348 373.715 104.789 373.715 104.168V93.1774C373.715 92.4944 373.466 91.9356 372.97 91.501C372.473 91.0042 371.884 90.7559 371.2 90.7559H325.562C324.941 90.7559 324.383 91.0042 323.886 91.501C323.882 91.5041 323.879 91.5072 323.875 91.5103C323.478 91.8615 323.243 92.293 323.167 92.8049C323.15 92.9247 323.141 93.0489 323.141 93.1774V153.531Z" fill="#F2EEFD"/>
<path fill-rule="evenodd" clip-rule="evenodd" d="M461.392 136.114C460.895 135.804 460.212 135.648 459.343 135.648H444.534C443.975 135.648 443.509 135.835 443.137 136.207C442.765 136.58 442.578 137.045 442.578 137.604C442.702 140.895 443.82 144.031 445.931 147.011C448.104 149.929 451.333 152.32 455.617 154.183C459.964 155.984 465.397 156.884 471.917 156.884C477.63 156.884 482.69 156.046 487.099 154.369C491.569 152.631 495.077 150.178 497.623 147.011C499.265 144.97 500.377 142.67 500.96 140.112C501.281 138.702 501.442 137.215 501.442 135.648C501.442 133.936 501.281 132.348 500.96 130.886C500.547 129.007 499.869 127.335 498.927 125.869C497.251 123.261 494.58 121.15 490.917 119.535C488.92 118.64 486.571 117.86 483.869 117.194C483.169 117.021 482.445 116.857 481.697 116.699C480.227 116.39 478.666 116.111 477.014 115.862C476.898 115.844 476.783 115.827 476.667 115.81C476.481 115.773 476.297 115.736 476.115 115.699C473.274 115.122 471.036 114.6 469.402 114.133C467.664 113.575 466.453 112.954 465.77 112.271C465.087 111.588 464.745 110.78 464.745 109.849C464.745 108.483 465.304 107.458 466.422 106.775C467.539 106.03 469.154 105.658 471.265 105.658C473.19 105.658 474.773 105.999 476.015 106.682C477.257 107.365 478.033 108.142 478.344 109.011C478.487 109.172 478.63 109.32 478.773 109.456C479.127 109.789 479.48 110.045 479.833 110.222C480.33 110.47 480.951 110.594 481.697 110.594H497.251C497.747 110.594 498.182 110.408 498.554 110.035C498.989 109.601 499.207 109.104 499.207 108.545C499.144 106.558 498.493 104.478 497.251 102.305C496.008 100.132 494.208 98.1135 491.848 96.2508C489.489 94.3259 486.571 92.7737 483.093 91.5938C479.679 90.4141 475.735 89.8242 471.265 89.8242C465.863 89.8242 461.112 90.6935 457.015 92.4321C452.978 94.1706 449.812 96.5923 447.515 99.6969C445.853 102.005 444.808 104.571 444.382 107.394C444.235 108.368 444.162 109.373 444.162 110.408C444.162 111.176 444.195 111.921 444.262 112.643C444.349 113.574 444.492 114.467 444.691 115.321C445.135 117.229 445.859 118.944 446.862 120.467C448.725 123.137 451.395 125.279 454.872 126.893C458.349 128.446 462.479 129.625 467.26 130.433C470.675 131.054 473.376 131.643 475.363 132.202C477.35 132.761 478.747 133.382 479.554 134.065C480.423 134.748 480.858 135.617 480.858 136.673C480.858 138.039 480.082 139.125 478.53 139.933C476.977 140.678 474.773 141.05 471.917 141.05C470.364 141.05 468.999 140.895 467.819 140.584C466.639 140.212 465.676 139.746 464.932 139.188C464.186 138.567 463.534 137.915 462.976 137.232C462.417 136.735 461.889 136.362 461.392 136.114Z" fill="#F2EEFD"/>
<path fill-rule="evenodd" clip-rule="evenodd" d="M507.559 153.531C507.559 154.215 507.809 154.804 508.305 155.301C508.801 155.736 509.358 155.953 509.981 155.953H556.366C557.046 155.953 557.636 155.736 558.132 155.301C558.627 154.804 558.878 154.215 558.878 153.531V142.634C558.878 141.951 558.628 141.361 558.132 140.864C557.636 140.368 557.046 140.119 556.366 140.119H526.841V130.712H553.57C554.255 130.712 554.84 130.495 555.341 130.06C555.837 129.564 556.082 128.974 556.082 128.291V118.232C556.082 117.549 555.837 116.99 555.341 116.555C554.84 116.059 554.255 115.81 553.57 115.81H526.841V106.589H555.62C556.299 106.589 556.89 106.341 557.385 105.844C557.887 105.348 558.132 104.789 558.132 104.168V93.1774C558.132 92.4944 557.887 91.9356 557.385 91.501C556.89 91.0042 556.299 90.7559 555.62 90.7559H509.981C509.358 90.7559 508.801 91.0042 508.305 91.501C507.809 91.9356 507.559 92.4944 507.559 93.1774V153.531Z" fill="#F2EEFD"/>
<path fill-rule="evenodd" clip-rule="evenodd" d="M439.5 152.879L427.392 130.899C427.522 130.829 427.651 130.758 427.779 130.685C430.83 128.966 433.309 126.647 435.216 123.727C436.724 121.418 437.66 118.733 438.023 115.673C438.139 114.701 438.196 113.691 438.196 112.643C438.196 111.88 438.167 111.134 438.107 110.408C438.027 109.431 437.893 108.488 437.706 107.578C436.774 103.062 434.516 99.3798 430.932 96.5305C426.151 92.6807 419.538 90.7559 411.093 90.7559H384.549C383.928 90.7559 383.369 91.0042 382.872 91.501C382.375 91.9356 382.127 92.4944 382.127 93.1774V153.531C382.127 154.214 382.375 154.804 382.872 155.301C383.369 155.736 383.928 155.953 384.549 155.953H399.73C400.413 155.953 400.972 155.736 401.406 155.301C401.903 154.804 402.152 154.214 402.152 153.531V134.252H408.858L418.171 153.438C418.358 153.935 418.761 154.494 419.382 155.115C420.003 155.673 420.904 155.953 422.084 155.953H437.824C438.383 155.953 438.848 155.767 439.221 155.394C439.594 154.959 439.78 154.463 439.78 153.904C439.78 153.594 439.687 153.252 439.5 152.879ZM415.843 117.114C414.788 118.294 413.173 118.884 411 118.884H402.152V105.844H411C413.235 105.844 414.85 106.496 415.843 107.8C416.899 109.104 417.427 110.688 417.427 112.55C417.427 114.351 416.899 115.872 415.843 117.114Z" fill="#F2EEFD"/>
</g>
<defs>
<filter id="filter0_d_2532_3356" x="130.408" y="0.144531" width="344.373" height="134.561" filterUnits="userSpaceOnUse" color-interpolation-filters="sRGB">
<feFlood flood-opacity="0" result="BackgroundImageFix"/>
<feColorMatrix in="SourceAlpha" type="matrix" values="0 0 0 0 0 0 0 0 0 0 0 0 0 0 0 0 0 0 127 0" result="hardAlpha"/>
<feOffset dx="20" dy="20"/>
<feGaussianBlur stdDeviation="25"/>
<feComposite in2="hardAlpha" operator="out"/>
<feColorMatrix type="matrix" values="0 0 0 0 0.529412 0 0 0 0 0.282353 0 0 0 0 0.937255 0 0 0 0.25 0"/>
<feBlend mode="normal" in2="BackgroundImageFix" result="effect1_dropShadow_2532_3356"/>
<feBlend mode="normal" in="SourceGraphic" in2="effect1_dropShadow_2532_3356" result="shape"/>
</filter>
</defs>
</svg>
